<svg width="402" height="73" viewBox="0 0 402 73" fill="none" xmlns="http://www.w3.org/2000/svg">
<path d="M46.2798 0.776164C53.0298 2.46616 56.4698 -1.62384 63.1598 0.776164V10.9062C56.4398 8.74617 53.0298 14.2862 46.2798 10.9062V0.776164Z" fill="#DA0A5B"></path>
<path fill-rule="evenodd" clip-rule="evenodd" d="M61.74 15.3962H21.94V32.2762H0V53.5462L5.4 57.1262L7.29 72.2462C8.77 72.1762 10.13 71.9062 11.48 71.6362C14.15 71.0962 16.78 70.5562 20.26 71.8062C23.47 72.6162 25.93 72.1062 28.36 71.6362C31.03 71.0962 33.66 70.5562 37.14 71.8062C40.35 72.6162 42.81 72.1062 45.24 71.6362C47.91 71.0962 50.54 70.5562 54.02 71.8062C57.23 72.6162 59.69 72.1062 62.12 71.6362C64.79 71.0962 67.42 70.5562 70.9 71.8062C74.11 72.6162 76.57 72.1062 79 71.6362C81.67 71.0962 84.3 70.5562 87.78 71.8062C88.39 71.9762 88.99 72.0762 89.57 72.1462L109.48 32.2162H64.99L61.78 15.3362L61.75 15.4062L61.74 15.3962ZM54.65 32.2662L53.37 25.5162H32.07V32.2662H54.65ZM21.94 42.3962H10.13V48.1362L14.86 51.3062L16.28 62.6862H82.98L93.07 42.4362H21.94V42.4062V42.3962ZM30.38 59.2762C34.09 59.2762 37.13 56.2362 37.13 52.5262C37.13 48.8162 34.09 45.7762 30.38 45.7762C26.67 45.7762 23.63 48.8162 23.63 52.5262C23.63 56.2362 26.67 59.2762 30.38 59.2762ZM50.63 59.2762C54.34 59.2762 57.38 56.2362 57.38 52.5262C57.38 48.8162 54.34 45.7762 50.63 45.7762C46.92 45.7762 43.88 48.8162 43.88 52.5262C43.88 56.2362 46.92 59.2762 50.63 59.2762ZM77.64 52.5262C77.64 56.2362 74.6 59.2762 70.89 59.2762C67.18 59.2762 64.14 56.2362 64.14 52.5262C64.14 48.8162 67.18 45.7762 70.89 45.7762C74.6 45.7762 77.64 48.8162 77.64 52.5262Z" fill="#18365F"></path>
<path d="M401.259 0.328125V72.3882H383.706V29.1727L367.59 72.3882H353.424L337.205 29.07V72.3882H319.652V0.328125H340.388L360.61 50.2159L380.626 0.328125H401.259Z" fill="#E3175E"></path>
<path d="M281.67 14.3911V28.9674H305.177V42.5171H281.67V58.3252H308.257V72.3882H264.117V0.328125H308.257V14.3911H281.67Z" fill="#E3175E"></path>
<path d="M254.979 23.5269C254.979 27.7014 254.021 31.5336 252.105 35.0237C250.189 38.4454 247.246 41.2169 243.277 43.3383C239.308 45.4598 234.381 46.5205 228.495 46.5205H217.615V72.3882H200.062V0.328125H228.495C234.244 0.328125 239.103 1.3204 243.072 3.30496C247.041 5.28952 250.018 8.02684 252.002 11.5169C253.987 15.007 254.979 19.0104 254.979 23.5269ZM227.161 32.5601C230.514 32.5601 233.012 31.7731 234.654 30.1992C236.297 28.6252 237.118 26.4011 237.118 23.5269C237.118 20.6528 236.297 18.4287 234.654 16.8547C233.012 15.2808 230.514 14.4938 227.161 14.4938H217.615V32.5601H227.161Z" fill="#E3175E"></path>
<path d="M152.477 0.328125C160.073 0.328125 166.711 1.83365 172.391 4.84471C178.071 7.85576 182.451 12.0986 185.53 17.5733C188.678 22.9795 190.252 29.2411 190.252 36.3582C190.252 43.4068 188.678 49.6684 185.53 55.143C182.451 60.6177 178.037 64.8605 172.288 67.8716C166.608 70.8827 160.004 72.3882 152.477 72.3882H125.48V0.328125H152.477ZM151.348 57.196C157.986 57.196 163.152 55.3826 166.848 51.7556C170.543 48.1286 172.391 42.9962 172.391 36.3582C172.391 29.7201 170.543 24.5534 166.848 20.8581C163.152 17.1627 157.986 15.315 151.348 15.315H143.033V57.196H151.348Z" fill="#E3175E"></path>
</svg>